<?xml version="1.0" encoding="iso-8859-1"?>
<!-- Generator: Adobe Illustrator 19.0.0, SVG Export Plug-In . SVG Version: 6.00 Build 0)  -->
<svg version="1.1" id="Layer_1" xmlns="http://www.w3.org/2000/svg" xmlns:xlink="http://www.w3.org/1999/xlink" x="0px" y="0px"
	 viewBox="0 0 512 512" style="enable-background:new 0 0 512 512;" xml:space="preserve">
<path style="fill:#F270A8;" d="M45.477,223.252h421.046h4.678c18.059,0,32.748,14.69,32.748,32.748
	c0,8.983-3.649,17.216-9.637,23.11c-5.894,5.988-14.129,9.637-23.11,9.637h-4.678H45.477h-4.678
	c-18.059,0-32.748-14.69-32.748-32.748c0-8.983,3.649-17.216,9.637-23.11c5.894-5.988,14.129-9.637,23.11-9.637H45.477z"/>
<g>
	<path style="fill:#FFD311;" d="M466.523,349.566c0,20.678-16.748,37.426-37.426,37.426H82.904
		c-20.678,0-37.426-16.748-37.426-37.426v-60.818h421.046v60.818H466.523z"/>
	<path style="fill:#FFD311;" d="M82.904,125.008h346.193c20.678,0,37.426,16.748,37.426,37.426v60.818H45.477v-60.818
		C45.477,141.756,62.225,125.008,82.904,125.008z"/>
</g>
<g>
	<path style="fill:#FCC418;" d="M244.66,288.748H45.477v60.818c0,20.678,16.748,37.426,37.426,37.426h322.084
		C342.831,369.04,287.728,334.639,244.66,288.748z"/>
	<path style="fill:#FCC418;" d="M82.904,125.008c-20.678,0-37.426,16.748-37.426,37.426v60.818H196.01
		c-17.467-30.217-30.599-63.234-38.588-98.244H82.904z"/>
</g>
<path d="M512,256c0-21.36-16.502-38.927-37.426-40.649v-52.918c0-25.076-20.401-45.477-45.477-45.477H223.251v16.102h205.846
	c16.197,0,29.375,13.178,29.375,29.375V215.2H53.528v-52.767c0-16.197,13.178-29.375,29.375-29.375H204.54v-16.102H82.903
	c-25.076,0-45.477,20.401-45.477,45.477v52.915c-9.656,0.784-18.585,4.913-25.43,11.848C4.259,234.835,0,245.061,0,256
	c0,21.361,16.502,38.927,37.426,40.649v52.917c0,25.076,20.401,45.477,45.477,45.477h196.488v-16.102H82.903
	c-16.197,0-29.375-13.178-29.375-29.375V296.8h404.944v52.767c0,16.197-13.178,29.375-29.375,29.375H298.105v16.102h130.992
	c25.076,0,45.477-20.401,45.477-45.477v-52.914c9.654-0.784,18.582-4.912,25.428-11.845C507.739,277.169,512,266.941,512,256z
	 M488.664,273.373l-0.09,0.09c-4.591,4.665-10.761,7.234-17.373,7.234H40.799C27.181,280.698,16.102,269.619,16.102,256
	c0-6.611,2.57-12.781,7.234-17.373l0.09-0.09c4.591-4.665,10.761-7.234,17.373-7.234h430.402c13.619,0,24.697,11.079,24.697,24.697
	C495.898,262.611,493.329,268.781,488.664,273.373z"/>
<path style="fill:#FFFFFF;" d="M368.279,238.593c-20.6,0-31.447,5.417-41.017,10.196c-9.152,4.571-17.056,8.518-33.929,8.518
	c-16.751,0-24.617-3.937-33.723-8.496c-9.567-4.789-20.409-10.217-41.036-10.217c-20.614,0-31.459,5.422-41.026,10.206
	c-9.129,4.564-17.013,8.506-33.826,8.506s-24.697-3.942-33.826-8.506c-9.569-4.784-20.413-10.206-41.026-10.206v16.102
	c16.812,0,24.697,3.942,33.826,8.506c9.569,4.784,20.413,10.206,41.026,10.206s31.459-5.422,41.026-10.206
	c9.129-4.564,17.013-8.506,33.826-8.506c16.822,0,24.703,3.945,33.828,8.514c9.549,4.781,20.373,10.199,40.931,10.199
	c20.67,0,31.536-5.426,41.123-10.214c9.133-4.561,17.02-8.5,33.824-8.5c16.812,0,24.697,3.942,33.826,8.506
	c9.569,4.784,20.413,10.206,41.026,10.206v-16.102c-16.812,0-24.697-3.942-33.826-8.506
	C399.738,244.015,388.893,238.593,368.279,238.593z"/>
<rect x="36.121" y="247.947" width="18.714" height="16.102"/>
<rect x="457.164" y="247.947" width="18.714" height="16.102"/>
<rect x="73.542" y="177.775" width="18.714" height="16.102"/>
<rect x="92.26" y="159.065" width="18.714" height="16.102"/>
<rect x="110.974" y="177.775" width="18.714" height="16.102"/>
<g>
	<rect x="419.743" y="327.479" style="fill:#FFFFFF;" width="18.714" height="16.102"/>
	<rect x="401.022" y="346.19" style="fill:#FFFFFF;" width="18.714" height="16.102"/>
	<path style="fill:#FFFFFF;" d="M430.402,181.148h16.102c0-26.501-21.601-36.121-36.121-36.121v16.102
		c0.052,0,5.345,0.114,10.434,2.659C427.268,167.013,430.402,172.691,430.402,181.148z"/>
</g>
<rect x="274.708" y="145.024" width="116.953" height="16.102"/>
<path style="fill:#FFFFFF;" d="M86.277,326.175H70.175c0,26.501,21.601,36.12,36.121,36.12l0.052-16.102
	c-0.056,0-5.647-0.106-10.879-2.861C89.283,340.076,86.277,334.463,86.277,326.175z"/>
<rect x="120.334" y="346.19" width="23.392" height="16.102"/>
<g>
</g>
<g>
</g>
<g>
</g>
<g>
</g>
<g>
</g>
<g>
</g>
<g>
</g>
<g>
</g>
<g>
</g>
<g>
</g>
<g>
</g>
<g>
</g>
<g>
</g>
<g>
</g>
<g>
</g>
</svg>
